<?xml version="1.0" encoding="utf-8"?>
<!-- Generator: Adobe Illustrator 18.0.0, SVG Export Plug-In . SVG Version: 6.00 Build 0)  -->
<!DOCTYPE svg PUBLIC "-//W3C//DTD SVG 1.1//EN" "http://www.w3.org/Graphics/SVG/1.1/DTD/svg11.dtd">
<svg version="1.1" xmlns="http://www.w3.org/2000/svg" xmlns:xlink="http://www.w3.org/1999/xlink" x="0px" y="0px"
	 viewBox="0 0 257.6 259.5" enable-background="new 0 0 257.6 259.5" xml:space="preserve">
<g id="圖層_2">
</g>
<g id="圖層_1">
	<g>
		<path fill="#4D4D4D" d="M197.3,130c17.3-17.3,17.3-45.3,0-62.6l0,0c-17.3-17.3-45.3-17.3-62.6,0l-37.1,37.1l62.6,62.6L197.3,130z"
			/>
		<path fill="none" stroke="#4D4D4D" stroke-width="6" stroke-miterlimit="10" d="M60.1,204.5L60.1,204.5
			c-17.3-17.3-17.3-45.3,0-62.6L135,67c17.3-17.3,45.3-17.3,62.6,0l0,0c17.3,17.3,17.3,45.3,0,62.6l-74.9,74.9
			C105.5,221.8,77.4,221.8,60.1,204.5z"/>
		<g>
			<g>
				<path fill="#4D4D4D" d="M99,117.3c-10.7,9.9-21.5,19.9-31.3,30.7c-5.1,5.6-9.3,11.9-10.8,19.5c-2.1,11.2,3.8,21.2,11.3,29
					c2.7,2.8,6.9-1.5,4.2-4.2c-7.3-7.6-12-16.7-8.7-27.2c2-6.5,7-11.6,11.6-16.4c8.9-9.4,18.4-18.3,27.9-27.1
					C106.1,118.9,101.8,114.6,99,117.3L99,117.3z"/>
			</g>
		</g>
		<g>
			<g>
				<path fill="#E6E6E6" d="M141.3,73.2c-10,10-20,20-30,30c-2.7,2.7,1.5,7,4.2,4.2c10-10,20-20,30-30
					C148.2,74.7,144,70.5,141.3,73.2L141.3,73.2z"/>
			</g>
		</g>
	</g>
</g>
</svg>
